<?xml version="1.0" standalone="no"?>
<!DOCTYPE svg PUBLIC "-//W3C//DTD SVG 1.1//EN" "http://www.w3.org/Graphics/SVG/1.1/DTD/svg11.dtd" >
<svg xmlns="http://www.w3.org/2000/svg">
  <metadata>Created by iconfont</metadata>
  <defs>
  <font id="iconfont" horiz-adv-x="1024">
    <font-face
      font-family="iconfont"
      font-weight="400"
      font-stretch="normal"
      units-per-em="1024"
      ascent="896"
      descent="-128"
    />
      <missing-glyph />
      
      <glyph glyph-name="tianjia" unicode="&#58903;" d="M509.811148 746.919772c-246.678192 0-446.650643-199.972451-446.650643-446.650643s199.972451-446.650643 446.650643-446.650643 446.650643 199.972451 446.650643 446.650643S756.490364 746.919772 509.811148 746.919772zM727.422328 276.1058 533.973454 276.1058l0-193.448874c0-13.353123-10.809183-24.186865-24.162306-24.186865-13.353123 0-24.162306 10.832719-24.162306 24.186865L485.648842 276.1058 292.200992 276.1058c-13.328563 0-24.162306 10.809183-24.162306 24.189935 0 13.328563 10.832719 24.134677 24.162306 24.134677l193.448874 0L485.649865 517.854726c0 13.352099 10.809183 24.162306 24.162306 24.214495 13.352099-0.052189 24.162306-10.861372 24.162306-24.214495l0-193.424314 193.448874 0c13.328563 0 24.162306-10.806113 24.162306-24.134677C751.612263 286.914984 740.77545 276.1058 727.422328 276.1058zM509.811148-146.893166c-60.365856 0-118.927623 11.82328-174.056198 35.140335-53.247738 22.521946-101.068883 54.764278-142.135184 95.830579-41.066301 41.066301-73.308633 88.887446-95.829556 142.135184-23.318078 55.128575-35.140335 113.689319-35.140335 174.055175s11.82328 118.927623 35.140335 174.056198c22.521946 53.247738 54.764278 101.068883 95.829556 142.135184 41.066301 41.066301 88.887446 73.308633 142.135184 95.829556 55.128575 23.318078 113.690342 35.140335 174.056198 35.140335s118.927623-11.82328 174.056198-35.140335c53.247738-22.521946 101.069907-54.764278 142.135184-95.829556 41.067324-41.066301 73.309656-88.88847 95.830579-142.135184 23.317055-55.129598 35.140335-113.690342 35.140335-174.056198s-11.82328-118.9266-35.140335-174.055175c-22.521946-53.247738-54.764278-101.069907-95.830579-142.135184-41.066301-41.067324-88.887446-73.309656-142.135184-95.830579C628.738771-135.069887 570.177004-146.893166 509.811148-146.893166zM509.811148 746.409143c-246.001787 0-446.13899-200.137203-446.13899-446.140013 0-246.001787 200.137203-446.13899 446.13899-446.13899 246.001787 0 446.140013 200.137203 446.140013 446.13899C955.951161 546.270916 755.813958 746.409143 509.811148 746.409143zM509.811148 57.959432c-13.604856 0-24.673959 11.079336-24.673959 24.698518L485.137189 275.594147 292.199968 275.594147c-13.604856 0-24.673959 11.08036-24.673959 24.700565 0 13.59053 11.06808 24.64633 24.673959 24.64633l192.937221 0 0 192.913685c0 13.580297 11.06808 24.672936 24.671912 24.726148 13.608949-0.053212 24.676006-11.144828 24.676006-24.726148l0-192.913685 192.937221 0c13.604856 0 24.672936-11.0558 24.672936-24.64633 0.014326-6.592139-2.540869-12.792351-7.193843-17.455557-4.663206-4.672416-10.870582-7.246031-17.479093-7.246031L534.485107 275.593124l0-192.937221C534.485107 69.038768 523.417027 57.959432 509.811148 57.959432zM292.199968 323.917736c-13.041014 0-23.650653-10.597359-23.650653-23.623024 0-13.05534 10.609639-23.677259 23.650653-23.677259l193.960527 0 0-193.960527c0-13.054317 10.609639-23.675212 23.650653-23.675212 13.041014 0 23.650653 10.620895 23.650653 23.675212L533.461801 276.617453l193.960527 0c6.334265 0 12.284791 2.466168 16.754592 6.945179 4.459568 4.469801 6.90834 10.411117 6.895037 16.73208 0 13.026688-10.609639 23.624047-23.64963 23.624047L533.461801 323.918759l0 193.936991c0 13.018501-10.610662 23.651676-23.652699 23.702841-13.037944-0.050142-23.648606-10.683317-23.648606-23.702841l0-193.936991L292.199968 323.918759z"  horiz-adv-x="1024" />
      
      <glyph glyph-name="ic_lbangzhuyufankui" unicode="&#58894;" d="M848.725333 767.914667H264.362667c-61.354667 0-93.44-32.128-93.44-93.44v-563.242667l1.109333 8.533333a112.469333 112.469333 0 0 1-1.152-15.914666c0-61.610667 39.253333-100.821333 100.864-100.821334H840.106667a31.872 31.872 0 0 1 31.872 31.872V744.618667c0 9.002667-14.250667 23.296-31.872 23.296h8.576z m-337.749333-44.501334H372.565333h138.410667z m316.586667-675.925333H263.168a47.786667 47.786667 0 1 0 0 95.616h564.394667v-95.573333zM263.168 187.562667c-17.066667 0-33.28-3.84-47.786667-10.709334V680.874667c0 29.013333 15.744 42.538667 40.405334 42.538666h571.776v-535.850666H263.168zM426.666667 597.333333h341.333333v-469.333333h-341.333333a85.333333 85.333333 0 0 0-85.333334 85.333333V512a85.333333 85.333333 0 0 0 85.333334 85.333333z"  horiz-adv-x="1024" />
      
      <glyph glyph-name="ic_chuanglianzanting" unicode="&#58946;" d="M268.8 691.2a38.4 38.4 0 0 0 38.4-38.4v-537.6a38.4 38.4 0 1 0-76.8 0V652.8A38.4 38.4 0 0 0 268.8 691.2z m486.4 0a38.4 38.4 0 0 0 38.4-38.4v-537.6a38.4 38.4 0 1 0-76.8 0V652.8a38.4 38.4 0 0 0 38.4 38.4z"  horiz-adv-x="1024" />
      
      <glyph glyph-name="ic_jia" unicode="&#58943;" d="M576 691.2v-294.4H870.4v-76.8l-294.4 0.0512V25.6h-76.8v294.4H204.8v76.8h294.4V691.2h76.8z"  horiz-adv-x="1024" />
      
      <glyph glyph-name="ic_jian" unicode="&#58944;" d="M568.710095 408.380952H853.333333v-73.142857H219.428571V408.380952h284.623239z"  horiz-adv-x="1024" />
      
      <glyph glyph-name="ic_jtjiatingguanli" unicode="&#58935;" d="M510.933333 386.56a33.28 33.28 0 0 0-10.24 2.858667L150.272 527.445333a30.464 30.464 0 0 0-18.986667 28.629334 32.512 32.512 0 0 0 19.2 28.8L499.626667 722.346667a26.496 26.496 0 0 0 22.016 0.042666l349.610666-137.514666a30.336 30.336 0 0 0 18.986667-28.586667 32.426667 32.426667 0 0 0-19.2-28.842667l-349.184-137.472a21.333333 21.333333 0 0 0-10.922667-3.413333z m-256 171.733333l255.829334-103.594666 259.541333 99.285333-257.664 104.32-257.706667-100.010667zM128 362.666667l19.968 64.938666 362.965333-147.626666 385.152 147.626666 22.442667-60.928-405.76-158.08zM128 148.394667L147.968 213.333333l362.965333-147.626666L896.085333 213.333333l22.442667-60.970666-405.76-158.037334z"  horiz-adv-x="1024" />
      
      <glyph glyph-name="ic_jtyaoqingjiaren" unicode="&#58939;" d="M484.437333 338.773333A213.034667 213.034667 0 0 0 332.8 401.493333a213.034667 213.034667 0 0 0-62.805333 151.637334c0 57.258667 22.314667 111.146667 62.805333 151.637333a213.034667 213.034667 0 0 0 151.637333 62.805333c57.258667 0 111.146667-22.314667 151.637334-62.805333a213.034667 213.034667 0 0 0 62.805333-151.637333 213.034667 213.034667 0 0 0-62.805333-151.637334 213.034667 213.034667 0 0 0-151.637334-62.805333z m0 380.330667a166.144 166.144 0 0 1-165.973333-165.930667 166.144 166.144 0 0 1 165.973333-165.973333 166.144 166.144 0 0 1 165.973334 165.973333 166.144 166.144 0 0 1-165.973334 165.973334zM128 25.6a353.322667 353.322667 0 0 0 103.850667 250.709333 353.322667 353.322667 0 0 0 250.709333 103.850667c57.557333 0 114.730667-14.08 165.290667-40.832 11.861333-6.229333 21.76-11.648 10.154666-32.768-11.648-21.077333-20.906667-16.341333-32.768-10.112a306.688 306.688 0 0 1-142.677333 35.242667c-168.789333 0-306.090667-145.066667-306.090667-306.090667 0-2.56-48.469333-4.992-48.469333 0z m705.962667 104.277333h-213.674667V178.346667h213.674667v-48.512z m-131.072-82.56v213.632h48.469333v-213.632h-48.469333z"  horiz-adv-x="1024" />
      
      <glyph glyph-name="jiantou-xia-copy" unicode="&#59349;" d="M476.2 433.8l-186.8-186.7-36.20000001 36.2 223.00000001 222.9L699 283.29999999999995l-36.2-36.2z"  horiz-adv-x="1024" />
      
      <glyph glyph-name="jiantou-xia" unicode="&#59086;" d="M547.8 334.2l186.8 186.7 36.2-36.2-223-222.9L325 484.7l36.2 36.2z"  horiz-adv-x="1024" />
      
      <glyph glyph-name="Switch" unicode="&#58949;" d="M853.333333 298.666667v-85.333334H376.661333l111.317334-110.336L427.648 42.666667 170.666667 298.666667h682.666666zM596.352 725.333333L853.333333 469.333333H170.666667V554.666667h476.672l-111.317334 110.336L596.352 725.333333z"  horiz-adv-x="1024" />
      
      <glyph glyph-name="scan" unicode="&#59348;" d="M136 512h56c4.4 0 8 3.6 8 8V696h176c4.4 0 8 3.6 8 8v56c0 4.4-3.6 8-8 8H196c-37.6 0-68-30.4-68-68v-180c0-4.4 3.6-8 8-8zM648 696h176v-176c0-4.4 3.6-8 8-8h56c4.4 0 8 3.6 8 8V700c0 37.6-30.4 68-68 68H648c-4.4 0-8-3.6-8-8v-56c0-4.4 3.6-8 8-8zM376 72H200V248c0 4.4-3.6 8-8 8h-56c-4.4 0-8-3.6-8-8v-180c0-37.6 30.4-68 68-68h180c4.4 0 8 3.6 8 8v56c0 4.4-3.6 8-8 8zM888 256h-56c-4.4 0-8-3.6-8-8v-176H648c-4.4 0-8-3.6-8-8v-56c0-4.4 3.6-8 8-8h180c37.6 0 68 30.4 68 68V248c0 4.4-3.6 8-8 8zM904 420H120c-4.4 0-8-3.6-8-8v-56c0-4.4 3.6-8 8-8h784c4.4 0 8 3.6 8 8v56c0 4.4-3.6 8-8 8z"  horiz-adv-x="1024" />
      
      <glyph glyph-name="search" unicode="&#59033;" d="M416 704C537.6 704 640 601.6 640 480S537.6 256 416 256 192 358.4 192 480 294.4 704 416 704M416 768C256 768 128 640 128 480S256 192 416 192 704 320 704 480 576 768 416 768L416 768zM832 32c-6.4 0-19.2 0-25.6 6.4l-192 192c-12.8 12.8-12.8 32 0 44.8s32 12.8 44.8 0l192-192c12.8-12.8 12.8-32 0-44.8C851.2 32 838.4 32 832 32z"  horiz-adv-x="1024" />
      
      <glyph glyph-name="ic_guanbi-danchuangyou" unicode="&#58932;" d="M768 600.618667L551.381333 384 768 167.381333l-39.381333-39.381333L512 344.618667 295.381333 128 256 167.381333 472.618667 384 256 600.618667 295.381333 640 512 423.381333 728.618667 640z"  horiz-adv-x="1024" />
      
      <glyph glyph-name="ic_fanhui1" unicode="&#58934;" d="M673.194667-42.666667L256 384l411.989333 426.666667L725.333333 752 365.525333 384 725.333333 10.666667z"  horiz-adv-x="1024" />
      
      <glyph glyph-name="ic_paixu3" unicode="&#58936;" d="M804.693333 640H219.306667c-3.285333 0-5.973333-2.858667-5.973334-6.4v-51.2c0-3.541333 2.688-6.4 5.973334-6.4h585.386666c3.285333 0 5.973333 2.858667 5.973334 6.4v51.2c0 3.541333-2.688 6.4-5.973334 6.4z m0-426.666667H219.306667c-3.285333 0-5.973333-2.858667-5.973334-6.4v-51.2c0-3.498667 2.688-6.4 5.973334-6.4h585.386666c3.285333 0 5.973333 2.858667 5.973334 6.4v51.2c0 3.498667-2.688 6.4-5.973334 6.4z m0 213.333334H219.306667c-3.285333 0-5.973333-2.901333-5.973334-6.4v-51.2c0-3.498667 2.688-6.4 5.973334-6.4h585.386666c3.285333 0 5.973333 2.901333 5.973334 6.4v51.2c0 3.498667-2.688 6.4-5.973334 6.4z"  horiz-adv-x="1024" />
      
      <glyph glyph-name="check_unchoose" unicode="&#58937;" d="M512 384m-486.4 0a486.4 486.4 0 1 1 972.8 0 486.4 486.4 0 1 1-972.8 0Z"  horiz-adv-x="1024" />
      
      <glyph glyph-name="ic_dingwei1" unicode="&#58940;" d="M510.037333 895.829333c232.704 0 423.594667-190.890667 423.594667-423.68 0-227.498667-381.781333-570.026667-397.397333-585.728l-15.701334-10.410666-18.346666 13.056C486.485333-97.877333 86.442667 244.650667 86.442667 474.794667 86.442667 707.498667 277.333333 895.829333 510.037333 895.829333z m0-47.104A373.845333 373.845333 0 0 1 136.106667 474.794667c0-183.04 308.565333-468.053333 381.781333-533.418667 73.216 67.925333 366.08 353.024 366.08 533.418667A373.845333 373.845333 0 0 1 510.037333 848.725333z m2.56-193.536c99.413333 0 180.48-81.066667 180.48-180.394666S612.010667 294.4 512.682667 294.4a180.821333 180.821333 0 0 0-180.48 180.394667c0 99.328 81.066667 180.394667 180.48 180.394666z m0-52.224c-70.570667 0-130.645333-57.6-130.645333-130.816 0-70.570667 57.514667-130.730667 130.730667-130.730666S643.413333 398.933333 643.413333 472.149333s-57.514667 130.816-130.730666 130.816z"  horiz-adv-x="1024" />
      
      <glyph glyph-name="ic_shanchu1" unicode="&#58941;" d="M615.232 95.744a34.304 34.304 0 0 0-34.368 34.432V508.8a34.432 34.432 0 0 0 68.864 0v-378.624a34.304 34.304 0 0 0-34.496-34.432z m-206.464 0a34.304 34.304 0 0 0-34.432 34.432V508.8a34.432 34.432 0 0 0 68.8 0v-378.624a34.304 34.304 0 0 0-34.368-34.432z m550.72 585.152h-172.16V749.76a103.04 103.04 0 0 1-102.4 103.232H339.84c-56.96 0-103.232-46.336-103.232-103.232v-68.864h-172.16a34.432 34.432 0 0 1 0-68.864h895.104a34.432 34.432 0 0 1 0 68.864zM305.408 749.76c0 18.944 15.488 34.368 34.432 34.368h344.96c18.88 0 33.728-15.04 33.728-34.368v-68.864H305.408V749.76z m447.616-860.544h-481.92c-56.96 0-103.296 46.4-103.296 103.296V509.312a34.432 34.432 0 0 0 68.864 0v-516.864c0-19.008 15.424-34.432 34.432-34.432h481.92a34.432 34.432 0 0 1 34.432 34.432V507.904a34.432 34.432 0 1 0 68.864 0v-515.392c0-56.96-46.4-103.296-103.296-103.296z"  horiz-adv-x="1024" />
      
      <glyph glyph-name="ic_rizhi" unicode="&#58900;" d="M438.058667 325.632v-70.741333H240.426667v70.741333h197.632z m85.333333 148.181333v-70.741333H240.426667V473.813333h282.965333z m141.482667 148.224V551.253333H240.426667V622.08h424.448z"  horiz-adv-x="1024" />
      
      <glyph glyph-name="kaiguan-guan" unicode="&#58901;" d="M0 896m407.253608 0l814.507217 0q407.253608 0 407.253608-407.253608l0 0q0-407.253608-407.253608-407.253609l-814.507217 0q-407.253608 0-407.253608 407.253609l0 0q0 407.253608 407.253608 407.253608ZM407.253608 488.746392m-356.346907 0a356.346907 356.346907 0 1 1 712.693815 0 356.346907 356.346907 0 1 1-712.693815 0Z"  horiz-adv-x="2048" />
      
      <glyph glyph-name="a-bianzu11" unicode="&#58902;" d="M512 384m-512 0a512 512 0 1 1 1024 0 512 512 0 1 1-1024 0ZM705.706667 415.573333L497.152 571.733333a39.253333 39.253333 0 0 1-61.781333-41.642666L474.453333 384l-38.912-146.261333a39.253333 39.253333 0 0 1 61.781334-41.642667l208.554666 156.330667a39.253333 39.253333 0 0 1 0 63.146666z"  horiz-adv-x="1024" />
      
      <glyph glyph-name="huakuai" unicode="&#58905;" d=""  horiz-adv-x="4399" />
      
      <glyph glyph-name="ic_kefu" unicode="&#58893;" d="M920.789333 394.24a27.605333 27.605333 0 0 0-27.605333 27.605333c0 207.488-168.789333 376.277333-376.234667 376.277334S140.714667 629.333333 140.714667 421.888a27.605333 27.605333 0 0 0-55.210667 0C85.504 659.797333 279.04 853.333333 516.949333 853.333333c237.909333 0 431.445333-193.536 431.445334-431.445333 0-15.274667-12.330667-27.648-27.605334-27.648zM195.541333 142.677333h-13.44a96.768 96.768 0 0 0-96.64 96.64v164.821334a96.768 96.768 0 0 0 96.64 96.64h13.44a96.768 96.768 0 0 0 96.597334-96.64v-164.821334a96.768 96.768 0 0 0-96.597334-96.64z m-13.44 302.890667a41.472 41.472 0 0 1-41.386666-41.386667v-164.864c0-22.869333 18.56-41.386667 41.386666-41.386666h13.44c22.826667 0 41.386667 18.517333 41.386667 41.386666v164.821334a41.472 41.472 0 0 1-41.386667 41.429333h-13.44z m669.696-302.933333h-13.397333a96.768 96.768 0 0 0-96.64 96.682666v164.821334a96.768 96.768 0 0 0 96.64 96.64h13.397333a96.768 96.768 0 0 0 96.64-96.64v-164.821334a96.768 96.768 0 0 0-96.64-96.64z m-13.397333 302.933333a41.472 41.472 0 0 1-41.386667-41.386667v-164.864c0-22.869333 18.56-41.386667 41.386667-41.386666h13.397333c22.826667 0 41.386667 18.517333 41.386667 41.386666v164.821334a41.472 41.472 0 0 1-41.386667 41.429333h-13.397333zM535.466667 45.653333c30.421333 0 55.210667-24.789333 55.210666-55.253333v-20.48c0-30.506667-24.746667-55.253333-55.253333-55.253333h-96.213333C408.746667-85.333333 384-60.586667 384-30.122667v20.522667c0 30.464 24.746667 55.210667 55.210667 55.210667h96.213333z m0-55.253333h-96.256v-20.565333l96.256 0.042666v20.522667zM598.357333-24.917333v27.52c133.845333 46.805333 211.541333 105.386667 233.088 175.744a27.605333 27.605333 0 1 0 52.778667-16.128c-26.282667-85.973333-123.477333-157.824-291.541333-215.552 3.797333 12.672 5.674667 22.186667 5.674666 28.416z"  horiz-adv-x="1024" />
      
      <glyph glyph-name="ic_fuwuzhengce" unicode="&#58892;" d="M341.333333 640h384v-64H341.333333z"  horiz-adv-x="1024" />
      
      <glyph glyph-name="tab3_h" unicode="&#58887;" d="M538.24 865.109333c28.842667 0 56.192-13.184 74.581333-36.010666l138.453334-171.861334a76.373333 76.373333 0 0 0-1.877334-97.664l-307.797333-352.341333c-13.653333-15.658667-33.152-24.661333-53.632-24.746667a71.68 71.68 0 0 0-53.845333 24.149334l-314.965334 352.426666A76.373333 76.373333 0 0 0 17.066667 657.834667l140.8 171.861333a95.744 95.744 0 0 0 74.026666 35.413333h306.346667z m-58.24-170.666666h-192a32 32 0 0 1 0-64h192a32 32 0 0 1 0 64z"  horiz-adv-x="1445" />
      
      <glyph glyph-name="tab1_h" unicode="&#58888;" d="M597.333333 896a85.333333 85.333333 0 0 0 85.333334-85.333333v-426.666667a85.333333 85.333333 0 0 0-85.333334-85.333333H170.666667a85.333333 85.333333 0 0 0-85.333334 85.333333V810.666667a85.333333 85.333333 0 0 0 85.333334 85.333333h426.666666zM32 682.666667a32 32 0 0 0 32-32v-106.666667a32 32 0 1 0-64 0v106.666667a32 32 0 0 0 32 32z m699.733333 0a32 32 0 0 0 32-32v-106.666667a32 32 0 1 0-64 0v106.666667a32 32 0 0 0 32 32z m-294.4-42.666667h-106.666666a32 32 0 1 1 0-64h106.666666a32 32 0 1 1 0 64z"  horiz-adv-x="1755" />
      
      <glyph glyph-name="tab2_h" unicode="&#58889;" d="M382.165333 873.728l247.253334-134.826667a85.333333 85.333333 0 0 0 44.458666-74.88v-261.376a85.333333 85.333333 0 0 0-44.458666-74.88l-247.253334-134.826666a85.333333 85.333333 0 0 0-81.664 0l-247.253333 134.826666a85.333333 85.333333 0 0 0-44.458667 74.88V664.021333a85.333333 85.333333 0 0 0 44.458667 74.88l247.253333 134.826667a85.333333 85.333333 0 0 0 81.664 0z m114.645334-233.088a32 32 0 0 1-40.021334 13.056l-3.84-2.005333-105.898666-63.146667-105.813334 63.146667-3.882666 2.005333a32 32 0 0 1-40.021334-13.056l-1.962666-3.882667a32 32 0 0 1 13.056-40.021333l100.906666-60.202667v-115.2l0.298667-4.352a32 32 0 0 1 63.701333 4.352v108.373334l112.384 67.029333 3.584 2.474667a32 32 0 0 1 7.509334 41.386666z"  horiz-adv-x="1445" />
      
      <glyph glyph-name="tab5_h" unicode="&#58891;" d="M482.944 868.138667a198.826667 198.826667 0 0 0 97.194667-178.218667 200.192 200.192 0 0 0-140.032-189.696c32.64-5.12 64.554667-13.909333 95.146666-26.325333 11.861333-5.034667 23.381333-10.794667 34.56-17.237334a395.946667 395.946667 0 0 0 191.786667-271.232c3.413333-14.165333-0.426667-29.141333-10.410667-39.808a48.554667 48.554667 0 0 0-36.266666-17.237333l-668.672 0.170667a48.554667 48.554667 0 0 0-36.266667 17.237333 47.530667 47.530667 0 0 0-8.789333 39.765333 395.690667 395.690667 0 0 0 315.434666 316.842667A200.106667 200.106667 0 0 0 182.741333 689.92a198.826667 198.826667 0 0 0 300.202667 178.218667zM439.466667 682.666667h-110.933334a29.866667 29.866667 0 0 1 0-59.733334h110.933334a29.866667 29.866667 0 0 1 0 59.733334z"  horiz-adv-x="1365" />
      
      <glyph glyph-name="ic_dingwei" unicode="&#58886;" d="M510.037333 895.829333c232.704 0 423.594667-190.890667 423.594667-423.68 0-227.498667-381.781333-570.026667-397.397333-585.728l-15.701334-10.410666-18.346666 13.056C486.485333-97.877333 86.442667 244.650667 86.442667 474.794667 86.442667 707.498667 277.333333 895.829333 510.037333 895.829333z m0-47.104A373.845333 373.845333 0 0 1 136.106667 474.794667c0-183.04 308.565333-468.053333 381.781333-533.418667 73.216 67.925333 366.08 353.024 366.08 533.418667A373.845333 373.845333 0 0 1 510.037333 848.725333z m2.56-193.536c99.413333 0 180.48-81.066667 180.48-180.394666S612.010667 294.4 512.682667 294.4a180.821333 180.821333 0 0 0-180.48 180.394667c0 99.328 81.066667 180.394667 180.48 180.394666z m0-52.224c-70.570667 0-130.645333-57.6-130.645333-130.816 0-70.570667 57.514667-130.730667 130.730667-130.730666S643.413333 398.933333 643.413333 472.149333s-57.514667 130.816-130.730666 130.816z"  horiz-adv-x="1024" />
      
      <glyph glyph-name="ic_feedback" unicode="&#58885;" d="M299.52-1.877333H149.731556A35.726222 35.726222 0 0 0 113.777778 33.507556v147.512888c-0.113778 28.216889 11.264 55.182222 31.573333 75.093334l502.727111 495.047111a108.942222 108.942222 0 0 0 152.405334 0l78.222222-76.629333c42.040889-41.472 42.040889-108.600889 0-150.072889L376.035556 29.411556a108.088889 108.088889 0 0 0-76.458667-31.288889zM580.835556 584.817778l-384.682667-378.88a34.872889 34.872889 0 0 1-10.467556-24.974222v-112.184889h113.777778a36.010667 36.010667 0 0 1 25.486222 10.353777L709.575111 457.955556 580.835556 584.817778z m143.701333 126.805333a36.124444 36.124444 0 0 1-25.429333-10.353778L631.466667 634.823111l128.967111-126.919111 67.470222 66.446222a35.100444 35.100444 0 0 1 0 50.062222l-78.051556 76.913778a35.896889 35.896889 0 0 1-25.372444 10.353778zM337.806222 99.555556h522.695111v-102.912H337.806222z"  horiz-adv-x="1024" />
      
      <glyph glyph-name="ic_shurushanchu" unicode="&#58883;" d="M512 384m-341.333333 0a341.333333 341.333333 0 1 1 682.666666 0 341.333333 341.333333 0 1 1-682.666666 0ZM682.666667 528.426667L538.24 384 682.666667 239.573333l-26.24-26.24L512 357.76 367.573333 213.333333 341.333333 239.573333 485.717333 384 341.333333 528.426667 367.573333 554.666667 512 410.24 656.426667 554.666667z"  horiz-adv-x="1024" />
      
      <glyph glyph-name="ic_fanhui" unicode="&#58881;" d="M673.194667-42.666667L256 384l411.989333 426.666667L725.333333 752 365.525333 384 725.333333 10.666667z"  horiz-adv-x="1024" />
      
      <glyph glyph-name="wenhao" unicode="&#59165;" d="M511.51393 832.105784c-114.5315 0-229.061976-43.508933-316.720432-131.167389-174.676321-174.676321-174.676321-458.764542 0-633.440863 87.658456-87.658456 202.188932-131.167389 316.720432-131.167389s229.062999 43.508933 316.720432 131.167389c174.676321 174.676321 174.676321 458.764542 0 633.440863C740.576929 788.596851 626.045429 832.105784 511.51393 832.105784zM511.51393 787.316695c52.466955 0 103.653755-10.237155 151.641699-29.432333 49.907667-20.475334 94.695732-49.907667 133.086088-88.937588 39.029922-38.390355 68.463278-83.179444 88.937588-133.086088 19.195178-47.987944 29.432333-99.174744 29.432333-151.641699s-10.237155-103.653755-29.432333-151.641699c-20.47431-49.907667-49.907667-94.695732-88.937588-133.086088-38.390355-39.029922-83.179444-68.463278-133.086088-88.937588-47.987944-19.195178-99.174744-29.432333-151.641699-29.432333-52.466955 0-103.653755 10.237155-151.641699 29.432333-49.907667 20.475334-94.695732 49.907667-133.086088 88.937588-39.029922 38.390355-68.463278 83.179444-88.937588 133.086088-19.195178 47.987944-29.432333 99.174744-29.432333 151.641699s10.237155 103.653755 29.432333 151.641699c20.475334 49.907667 49.907667 94.695732 88.937588 133.086088 38.390355 39.029922 83.179444 68.463278 133.086088 88.937588C407.860175 777.07954 459.046974 787.316695 511.51393 787.316695zM511.51393 221.699544c-18.555611 0-34.55091-15.355733-34.55091-34.55091 0-18.555611 15.996322-33.911344 34.55091-33.911344 19.195178 0 34.55091 15.355733 34.55091 33.911344C546.065863 206.342788 530.709107 221.699544 511.51393 221.699544zM512.154519 615.200686c-42.2298 0-76.141144-10.877745-101.734032-33.911344-25.593911-22.394033-41.589211-55.026244-46.707788-97.895611l58.225099-7.0383c4.479011 31.991622 15.355733 55.665811 31.352055 70.381977 15.996322 15.355733 35.831067 22.394033 59.505255 22.394033 24.953322 0 46.068222-8.317433 63.343677-24.953322 16.635889-15.996322 24.953322-35.1915 24.953322-57.585533 0-11.517311-2.559289-23.034623-8.317433-33.271778-5.758144-10.237155-18.555611-23.674189-37.750789-40.949644-19.834744-17.275455-33.271778-30.072923-40.949644-39.029922-9.597589-12.156878-17.275455-24.313755-21.754466-36.470633-6.398734-15.996322-9.597589-35.1915-9.597589-56.945967l0.639566-17.275455 53.746088 0c0.639566 22.394033 1.919722 39.029922 4.479011 48.627511 3.198855 10.237155 7.0383 19.195178 12.796444 26.873044 5.758144 7.677866 17.275455 19.834744 35.831067 35.831067 26.873044 24.313755 45.428655 44.789089 55.026244 61.424978 8.958022 16.635889 14.0766 35.1915 14.0766 55.026244 0 34.55091-13.437034 63.984267-40.310078 88.298022C592.773651 603.043808 556.942585 615.200686 512.154519 615.200686z"  horiz-adv-x="1024" />
      
      <glyph glyph-name="iconfontcheck" unicode="&#58909;" d="M887.904 597.792c-12.864 12.064-33.152 11.488-45.216-1.408L415.936 142.016l-233.12 229.696C170.208 384.128 149.952 384 137.536 371.392c-12.416-12.576-12.256-32.864 0.352-45.248l256.48-252.672c0.096-0.096 0.224-0.128 0.32-0.224 0.096-0.096 0.128-0.224 0.224-0.32 2.016-1.92 4.448-3.008 6.784-4.288 1.152-0.672 2.144-1.664 3.36-2.144 3.776-1.472 7.776-2.24 11.744-2.24 4.192 0 8.384 0.832 12.288 2.496 1.312 0.544 2.336 1.664 3.552 2.368 2.4 1.408 4.896 2.592 6.944 4.672 0.096 0.096 0.128 0.256 0.224 0.352 0.064 0.096 0.192 0.128 0.288 0.224l449.184 478.208C901.44 565.408 900.768 585.664 887.904 597.792z"  horiz-adv-x="1024" />
      
      <glyph glyph-name="del" unicode="&#58880;" d="M69.588 383.72299999999996c0 118.89000001 46.078 230.659 129.73 314.73S394.334 828.88 512.778 828.88s229.744-46.327 313.427-130.398 129.73-195.82 129.73-314.73-46.078-230.659-129.73-314.72S631.19-61.39700000000005 512.817-61.39700000000005 283.04-15.077999999999975 199.35800001 69.02999999999997s-129.77 195.8-129.77000001 314.692z m822.784 0c0 101.972-39.49400001 197.809-111.222 269.865s-166.997 111.7-268.37300001 111.7-196.695-39.653-268.33499999-111.67S133.22 485.754 133.22 383.75199999999995s39.484-197.809 111.222-269.865 166.998-111.69999999 268.374-111.67c101.375 0.03 196.665 39.654 268.303 111.67S892.372 281.78 892.372 383.72299999999996z m-347.8-222.585L544.572 351.927 735.36 351.927c17.561 0.76 31.18 15.613 30.419 33.173-0.714 16.495-13.924 29.704-30.419 30.419l-190.787 0L544.573 606.297c-0.761 17.56-15.614 31.179-33.174 30.419-16.494-0.715-29.703-13.924-30.418-30.41999999L480.981 415.52l-190.788 0c-17.56-0.761-31.179-15.614-30.419-33.174 0.715-16.494 13.925-29.703 30.42-30.418L480.98 351.928l0-190.788c-0.762-17.56 12.857-32.41299999 30.418-33.173 17.561-0.762 32.414 12.858 33.174 30.419a31.683 31.683 0 0 1 0 2.753z"  horiz-adv-x="1028" />
      
      <glyph glyph-name="triangle-bottom" unicode="&#58923;" d="M523.955 63.827l323.744 512c6.24 9.856 6.624 22.336 0.992 32.512-5.632 10.24-16.384 16.576-28.033 16.576h-647.328c-11.647 0-22.4-6.336-28.033-16.576-2.656-4.8-3.968-10.112-3.968-15.424 0-5.952 1.664-11.904 4.929-17.088l323.616-512c5.856-9.28 16.064-14.911 27.040-14.912s21.184 5.632 27.040 14.912z"  horiz-adv-x="1024" />
      
      <glyph glyph-name="triangle-top" unicode="&#58933;" d="M523.955 598.048l323.744-512c6.24-9.856 6.624-22.336 0.992-32.512-5.632-10.24-16.384-16.576-28.033-16.576h-647.328c-11.647 0-22.4 6.336-28.033 16.576-2.656 4.8-3.968 10.112-3.968 15.424 0 5.952 1.664 11.904 4.929 17.088l323.616 512c5.856 9.28 16.064 14.911 27.040 14.912s21.184-5.632 27.040-14.912z"  horiz-adv-x="1024" />
      
      <glyph glyph-name="iconset0127" unicode="&#58906;" d="M541.696 384l340.992 340.992c4.096 4.096 4.096 8.192 4.096 13.312 0 12.288-8.192 21.504-21.504 21.504-4.096 0-13.312-4.096-13.312-4.096L512 413.696 171.008 754.688c-4.096 0-8.192 4.096-13.312 4.096-12.288 0-21.504-8.192-21.504-21.504 0-4.096 0-13.312 4.096-13.312L482.304 384 141.312 43.008c-4.096-4.096-4.096-8.192-4.096-13.312 0-12.288 8.192-21.504 21.504-21.504 4.096 0 13.312 4.096 13.312 4.096L512 354.304l340.992-340.992c4.096-4.096 8.192-4.096 13.312-4.096 12.288 0 21.504 8.192 21.504 21.504 0 4.096-4.096 13.312-4.096 13.312L541.696 384z"  horiz-adv-x="1024" />
      
      <glyph glyph-name="tishi1" unicode="&#58910;" d="M511.839 885.711c-277.247 0-502-224.753-502-502s224.753-502 502-502 502 224.753 502 502-224.753 502-502 502z m0-950c-247.424 0-448 200.576-448 448s200.576 448 448 448 448-200.576 448-448-200.576-448-448-448zM511.839 218.247c16.569 0 30 15.758 30 35.198v391.07c0 19.439-13.431 35.198-30 35.198s-30-15.758-30-35.198v-391.07c0-19.44 13.432-35.198 30-35.198zM511.839 121.711m-34 0a34 34 0 1 1 68 0 34 34 0 1 1-68 0Z"  horiz-adv-x="1024" />
      
      <glyph glyph-name="fanhui-xianxing" unicode="&#58945;" d="M711.51-31.639999999999986c-8.19 0-16.38 3.12-22.63 9.37L289.86 376.75c-12.5 12.5-12.5 32.76 0 45.26L688.88 821.02c12.5 12.5 32.76 12.5 45.26 0s12.5-32.76 0-45.25L357.75 399.38l376.39-376.39c12.5-12.5 12.5-32.76 0-45.25-6.25-6.26-14.44-9.38-22.63-9.38z"  horiz-adv-x="1024" />
      
      <glyph glyph-name="ic_add" unicode="&#58884;" d="M448 128v192H256c-169.6 0-192 6.4-192 64s22.4 64 192 64h192V640c0 169.6 6.4 192 64 192s64-22.4 64-192v-192h192c169.6 0 192-6.4 192-64s-22.4-64-192-64h-192v-192c0-169.6-6.4-192-64-192s-64 22.4-64 192z"  horiz-adv-x="1024" />
      
      <glyph glyph-name="ic_gengduo-shouye" unicode="&#58890;" d="M130.048 311.6544c-42.3424 0-76.8 34.4576-76.8 76.8s34.4576 76.8 76.8 76.8 76.8-34.4576 76.8-76.8-34.4576-76.8-76.8-76.8z m358.4 0c-42.3424 0-76.8 34.4576-76.8 76.8s34.4576 76.8 76.8 76.8 76.8-34.4576 76.8-76.8-34.4576-76.8-76.8-76.8z m358.4 0c-42.3424 0-76.8 34.4576-76.8 76.8s34.4576 76.8 76.8 76.8 76.8-34.4576 76.8-76.8-34.4576-76.8-76.8-76.8z"  horiz-adv-x="1024" />
      
      <glyph glyph-name="ic_shuaxin-shouye" unicode="&#58899;" d="M888.64 210.112l-92.672-29.76a31.232 31.232 0 0 0-39.744 21.824 34.304 34.304 0 0 0 22.016 41.664l155.84 50.048a30.912 30.912 0 0 0 32-8 32.64 32.64 0 0 0 8.448-16.64 34.432 34.432 0 0 0-0.96-16.448c-80.64-263.872-352.128-415.616-605.248-338.176-124.288 37.952-225.152 124.48-283.904 243.712a34.432 34.432 0 0 0 14.208 45.056 31.104 31.104 0 0 0 43.2-13.568c50.112-102.784 138.88-179.072 246.016-211.456 198.848-60.8 410.88 41.6 500.8 231.68zM136.32 540.16l92.672 29.696a31.232 31.232 0 0 0 39.68-21.824 34.304 34.304 0 0 0-22.016-41.664L90.88 456.32a30.912 30.912 0 0 0-32 8 32.64 32.64 0 0 0-8.448 16.64 34.432 34.432 0 0 0 0.96 16.448C132.032 761.28 403.52 913.024 656.64 835.648c124.288-38.016 225.088-124.544 283.904-243.84a34.432 34.432 0 0 0-14.208-44.992 31.104 31.104 0 0 0-43.2 13.632c-50.112 102.72-138.88 179.008-246.016 211.392-198.848 60.8-410.88-41.6-500.8-231.68z"  horiz-adv-x="1024" />
      
      <glyph glyph-name="fanhui-xianxing-copy" unicode="&#59093;" d="M312.49 799.64c8.19 0 16.38-3.12 22.63-9.37L734.14 391.25c12.5-12.5 12.5-32.76 0-45.26L335.12-53.01999999999998c-12.5-12.5-32.76-12.5-45.26 0s-12.5 32.76 0 45.25L666.25 368.62l-376.39 376.39c-12.5 12.5-12.5 32.76 0 45.25 6.25 6.26 14.44 9.38 22.63 9.38z"  horiz-adv-x="1024" />
      
    </font>
</defs>
</svg>
